<?xml version="1.0" encoding="UTF-8"?>
<!DOCTYPE svg PUBLIC "-//W3C//DTD SVG 20010904//EN" "http://www.w3.org/TR/2001/REC-SVG-20010904/DTD/svg10.dtd">
<svg xmlns="http://www.w3.org/2000/svg" viewBox="0 0 400 415">


  <!-- Definición de gradiente -->
  <defs>
    <linearGradient id="globalGradient" gradientUnits="userSpaceOnUse"
                    x1="0" y1="0" x2="100%" y2="100%">
      <stop offset="0%" stop-color="#6f8be8ff"/>
      <stop offset="100%" stop-color="#683fc7ff"/>
    </linearGradient>
  

    <!-- Máscara INVERTIDA: las formas son "ventanas" -->
    <mask id="decoMask" maskUnits="userSpaceOnUse">
      <rect width="400" height="415" fill="black"/> <!-- Fondo negro (oculto) -->
      <g transform="translate(0,415) scale(0.1,-0.1)" fill="white"> <!-- Formas blancas (visibles) -->
        <path d="M466 3780 c-75 -5 -93 -19 -83 -61 9 -36 843 -855 917 -900 32 -20 84 -41 116 -47 78 -16 969 -16 1047 -1 109 22 142 50 602 506 445 442 460 459 422 492 -8 6 -74 11 -171 12 l-158 2 -361 -361 c-406 -404 -403 -402 -494 -367 -40 15 -106 76 -405 372 -342 338 -359 353 -395 353 -362 4 -984 4 -1037 0z"/>
        <path d="M1485 2666 c-105 -26 -126 -45 -582 -500 -244 -242 -443 -448 -443 -457 0 -8 6 -24 14 -35 13 -17 29 -19 142 -22 70 -2 141 -1 159 2 25 5 109 82 389 359 197 193 372 360 390 369 40 22 69 22 114 1 21 -10 193 -170 395 -368 197 -192 366 -353 375 -357 9 -4 260 -7 557 -7 474 -1 543 1 563 15 54 37 50 42 -390 480 -227 226 -431 424 -453 441 -59 45 -113 70 -180 82 -86 16 -984 13 -1050 -3z"/>
        <path d="M1420 1925 l0 -70 75 0 72 0 0 70 0 70 -75 0 -75 0 0 -70z"/>
        <path d="M1604 1925 l0 -70 75 0 72 0 0 70 0 70 -75 0 -75 0 0 -70z"/>
        <path d="M1420 1740 l0 -70 75 0 75 0 0 70 0 70 -75 0 -75 0 0 -70z"/>
        <path d="M1604 1740 l0 -70 75 0 75 0 0 70 0 70 -75 0 -75 0 0 -70z"/>
      </g>
    </mask>
  </defs>

  <!-- Rectángulo con gradiente aplicando la máscara -->
  <rect width="400" height="315" fill="url(#globalGradient)" mask="url(#decoMask)"/>

  <!-- Texto "SPEED" (blanco sólido) -->
  <g fill="#ffffff" transform="translate(0,415) scale(0.1,-0.1)">
    <path d="M524 1416 c-68 -30 -112 -130 -101 -231 9 -86 48 -146 158 -241 132 -113 164 -185 125 -279 -17 -41 -42 -55 -95 -55 -64 0 -92 31 -100 111 l-6 64 -42 3 -43 3 0 -61 c0 -62 18 -120 48 -154 43 -48 142 -68 224 -46 111 31 159 202 94 335 -21 43 -50 75 -127 141 -97 83 -135 133 -139 184 -6 66 1 92 29 121 66 66 171 20 171 -75 l0 -46 49 0 49 0 -5 43 c-16 142 -71 197 -195 197 -35 -1 -77 -7 -94 -14z"/>
    <path d="M960 979 l0 -450 48 3 47 3 3 173 2 172 53 0 c123 1 177 27 215 100 19 39 22 59 22 175 0 116 -3 136 -22 175 -13 24 -34 52 -48 62 -34 24 -115 38 -226 38 l-94 0 0 -451z m265 327 c30 -31 38 -75 33 -187 -4 -81 -7 -92 -31 -117 -23 -22 -37 -27 -97 -30 l-70 -4 0 181 0 181 70 0 c61 0 74 -3 95 -24z"/>
    <path d="M1490 980 l0 -450 179 0 179 0 5 33 c8 55 6 56 -136 59 l-132 3 0 155 0 155 108 3 107 3 0 44 0 44 -107 3 -108 3 -3 148 -3 147 136 0 135 0 0 50 0 50 -180 0 -180 0 0 -450z"/>
    <path d="M2007 1424 c-4 -4 -7 -207 -7 -451 l0 -443 186 0 185 0 -3 43 -3 42 -132 3 -133 3 0 159 0 160 110 0 110 0 0 45 0 45 -110 0 -110 0 0 150 0 149 133 3 132 3 0 45 0 45 -176 3 c-96 1 -178 -1 -182 -4z"/>
    <path d="M2520 1316 c0 -64 0 -253 0 -421 0 -168 0 -318 0 -335 l0 -30 133 0 c148 0 197 14 234 66 38 53 43 99 43 380 0 299 -7 349 -57 396 -43 42 -78 50 -220 56 l-133 5 0 -117z m261 4 c45 -25 49 -52 49 -345 0 -352 -1 -355 -139 -355 l-71 0 0 355 0 355 71 0 c39 0 79 -5 90 -10z"/>
  </g>

  <!-- Letra "X" (verde neón) -->
  <g fill="#05df72" transform="translate(0,415) scale(0.1,-0.1)">
    <path d="M3076 1422 c-3 -5 31 -100 74 -212 44 -112 80 -211 80 -219 0 -9 -38 -114 -85 -235 -47 -120 -85 -220 -85 -223 0 -2 21 -3 47 -1 l46 3 67 175 c37 96 73 175 80 175 6 0 42 -79 79 -175 l68 -175 52 -3 c28 -2 51 -1 51 2 0 5 -121 318 -150 388 -11 26 -20 56 -20 66 0 11 36 112 79 224 43 111 77 206 74 211 -2 4 -20 7 -38 7 -43 0 -48 -7 -115 -185 -29 -77 -59 -146 -65 -153 -9 -10 -24 21 -70 140 -74 196 -76 198 -125 198 -21 0 -41 -4 -44 -8z"/>
  </g>

</svg>





